<?xml version="1.0" encoding="UTF-8" standalone="no"?>
<!-- Created with Inkscape (http://www.inkscape.org/) -->

<svg
   version="1.1"
   id="svg1"
   width="800"
   height="800"
   viewBox="0 0 800 800"
   sodipodi:docname="logo3_nero4.svg"
   inkscape:version="1.3.2 (1:1.3.2+202311252150+091e20ef0f)"
   xmlns:inkscape="http://www.inkscape.org/namespaces/inkscape"
   xmlns:sodipodi="http://sodipodi.sourceforge.net/DTD/sodipodi-0.dtd"
   xmlns="http://www.w3.org/2000/svg"
   xmlns:svg="http://www.w3.org/2000/svg">
  <defs
     id="defs1" />
  <sodipodi:namedview
     id="namedview1"
     pagecolor="#ffffff"
     bordercolor="#999999"
     borderopacity="1"
     inkscape:showpageshadow="2"
     inkscape:pageopacity="0"
     inkscape:pagecheckerboard="0"
     inkscape:deskcolor="#d1d1d1"
     inkscape:zoom="1.1826172"
     inkscape:cx="314.55656"
     inkscape:cy="440.12552"
     inkscape:window-width="1532"
     inkscape:window-height="1236"
     inkscape:window-x="866"
     inkscape:window-y="154"
     inkscape:window-maximized="0"
     inkscape:current-layer="g1" />
  <g
     inkscape:groupmode="layer"
     inkscape:label="Image"
     id="g1">
    <path
       style="display:inline;fill:#668574;fill-opacity:1"
       d="m 422.82741,781.29256 c -8.82225,-0.73551 -9.2366,-2.09521 -3.38715,-11.11522 5.07814,-7.83065 9.11248,-16.65382 8.62075,-18.85374 -0.3767,-1.68527 -3.33211,1.05766 -20.21424,18.7609 -7.98063,8.3688 -7.98063,8.3688 -14.69234,7.74501 -3.69143,-0.34308 -9.91706,-1.29806 -13.83474,-2.12216 -3.91767,-0.82411 -8.44361,-1.49838 -10.05766,-1.49838 -1.61404,0 -2.93462,-0.40496 -2.93462,-0.89991 0,-0.49496 3.70671,-3.25325 8.23714,-6.12955 9.70387,-6.16082 20.63,-14.92349 26.34285,-21.12675 8.09198,-8.78662 20.76889,-29.82824 19.02264,-31.5745 -0.33145,-0.33144 -0.60263,-0.0917 -0.60263,0.53266 0,0.6244 -0.61926,0.89765 -1.37612,0.60721 -0.84453,-0.32407 -4.02039,2.48876 -8.22115,7.28139 -16.48463,18.80723 -25.91369,26.37614 -45.84368,36.79973 -12.94096,6.76826 -12.94096,6.76826 -20.75177,5.0898 -4.29594,-0.92316 -14.89751,-4.0851 -23.55904,-7.02654 -8.66153,-2.94144 -17.70389,-5.66615 -20.09414,-6.05491 -2.55673,-0.41583 -3.97751,-1.07522 -3.45107,-1.60166 0.49215,-0.49215 7.99595,-2.69598 16.67511,-4.8974 42.44036,-10.76476 63.91277,-25.11405 85.32626,-57.02068 16.20714,-24.14904 24.04371,-49.51437 25.03876,-81.04517 1.66998,-52.91758 -12.25011,-85.80591 -39.07695,-92.32523 -1.57954,-0.38385 -2.59141,-0.29647 -2.28616,0.19743 0.53975,0.87332 -6.5066,4.4461 -11.38005,5.77014 -1.375,0.37357 -7.01253,2.82993 -12.52784,5.4586 -7.45389,3.55261 -11.87192,6.48672 -17.21216,11.43097 -14.88556,13.78174 -24.82573,33.78845 -25.49576,51.31563 -0.24714,6.46484 -2.67701,9.23678 -8.3489,9.52424 -5.45299,0.27637 -6.69649,-2.38043 -5.8889,-12.58191 2.60444,-32.89926 23.6899,-59.88547 54.92127,-70.29096 10.9994,-3.66472 17.25943,-4.18297 23.05229,-1.90842 1.1,0.43191 -0.025,-0.8634 -2.5,-2.87847 -7.64776,-6.22657 -15.7393,-8.15405 -34,-8.0991 -14.7421,0.0444 -16.18456,0.23214 -29.5,3.84042 -38.57182,10.45236 -65.41192,26.52923 -85.66073,51.30964 -6.65161,8.14022 -8.91207,9.75283 -12.43241,8.86928 -3.90729,-0.98067 -3.13664,-5.52363 2.58653,-15.24754 10.30981,-17.5168 23.49261,-29.2762 48.50661,-43.26916 3.3,-1.84604 7.35,-4.11366 9,-5.03916 14.49056,-8.12792 56.46866,-19.03213 73.67058,-19.13662 10.50411,-0.0638 29.41419,3.46464 35.45648,6.61586 4.05025,2.11232 9.37294,2.00425 9.37294,-0.1903 0,-2.26665 -9.75382,-11.64193 -20.06913,-19.29027 -31.53258,-23.37998 -65.30202,-35.66667 -131.93087,-48.00177 -33.65987,-6.23151 -63.42455,-14.74806 -79.5,-22.74729 -11.9101,-5.92654 -12.49999,-6.5124 -12.49999,-12.41472 0,-4.51673 0.17143,-4.84501 2.53013,-4.84501 1.39158,0 5.32908,1.18429 8.74999,2.63176 25.56609,10.81756 46.99164,16.21896 100.71987,25.39159 17.71234,3.02389 54.42855,12.22107 68,17.03356 21.56623,7.64748 46.14429,20.90038 68.09057,36.71557 6.661,4.80014 13.30308,9.50856 14.76017,10.46316 1.45709,0.95461 3.2583,2.52961 4.00269,3.5 1.22123,1.59202 1.28506,1.52017 0.65357,-0.73564 -5.03677,-17.99218 -17.85969,-30.27945 -71.507,-68.52 -22.92883,-16.34398 -39.86009,-30.06951 -61.48862,-49.84648 -13.89005,-12.70097 -30.49026,-28.55396 -33.64812,-32.13352 -1.45561,-1.65 -11.62996,-11.46865 -22.60967,-21.81922 -10.97971,-10.35057 -20.95579,-20.58545 -22.16906,-22.74417 -1.4596,-2.59701 -2.10083,-5.1957 -1.89524,-7.68079 0.29144,-3.52289 0.49676,-3.73568 3.31071,-3.43104 3.64999,0.39515 10.91682,5.86092 22.94341,17.25698 4.98113,4.71997 16.03159,15.03512 24.55659,22.92256 8.525,7.88743 18.2,16.85412 21.5,19.92596 3.3,3.07184 7.575,6.67096 9.5,7.99805 1.925,1.32709 6.66353,5.37362 10.53007,8.99228 12.90978,12.08216 20.64033,18.51593 31.93667,26.57939 23.42419,16.72046 26.98326,19.17603 36.95929,25.5 5.63955,3.575 12.91328,8.44003 16.16384,10.81119 3.25057,2.37115 11.31013,8.19128 17.91013,12.93362 15.72227,11.29702 27.33935,21.10885 31.85496,26.90484 3.64504,4.67857 3.64504,4.67857 3.64504,1.57984 0,-3.88052 -2.36517,-15.25294 -4.52991,-21.78114 -2.78986,-8.41335 -10.78067,-24.39189 -18.47775,-36.94835 -27.21073,-44.38964 -42.30577,-74.24563 -51.57069,-102 -7.31143,-21.90244 -10.01766,-33.25721 -12.39336,-52 -3.09929,-24.45146 -2.58166,-41.82891 1.58619,-53.25 1.69183,-4.63608 4.23661,-5.54254 7.94439,-2.8298 1.80918,1.32365 1.94347,2.80208 1.97558,21.75 0.0318,18.7471 0.28416,21.59876 3.24189,36.62961 3.84416,19.53556 9.70332,40.22641 15.06503,53.20019 6.7956,16.44337 14.23229,32.4869 15.22025,32.83541 0.52296,0.18448 0.70037,0.74067 0.39425,1.236 -0.6335,1.02501 1.48777,4.87448 13.22034,23.99098 4.57809,7.45931 8.32379,14.09681 8.32379,14.75 0,0.65319 0.35768,1.18761 0.79485,1.18761 0.43717,0 7.97467,10.62624 16.75,23.61386 15.95515,23.61386 15.95515,23.61386 16.45515,-78.25 0.5,-101.86386 0.5,-101.86386 4.26098,-110.86386 6.34104,-15.17406 16.02585,-24.90231 30.50348,-30.64033 4.90042,-1.94221 7.6284,-2.2795 18.73554,-2.31644 11.13046,-0.037 13.98163,0.2957 19.82587,2.31355 13.38702,4.62215 29.09991,17.73506 34.84024,29.07529 2.31225,4.56793 2.31225,4.56793 13.32307,4.56793 8.87036,0 12.27439,0.44116 17.51082,2.26939 16.85966,5.88632 35.00256,25.35796 39.30989,42.18884 1.29836,5.07331 1.51627,5.30988 6.51157,7.06904 18.37516,6.47104 33.88339,22.90683 38.7032,41.01807 1.86624,7.01274 1.88328,21.96827 0.0331,29.07153 -1.44223,5.53707 -1.44223,5.53707 8.28106,15.4601 14.26187,14.55484 19.21633,25.35656 19.22895,41.92303 0.007,8.62533 -2.64333,20.81656 -5.90779,27.17966 -1.95566,3.81198 -1.95566,3.81198 5.25115,11.35526 13.72425,14.36501 24.46605,35.30405 26.72606,52.0972 1.97875,14.70325 -1.56027,31.71876 -9.22878,44.37175 -1.84027,3.03642 -6.35497,8.94837 -10.03269,13.13767 -6.68674,7.6169 -6.68674,7.6169 -3.2846,12.35244 4.74146,6.59977 6.46031,12.05591 7.11685,22.59106 1.31992,21.17992 -7.8699,40.58001 -25.01987,52.81797 -6.33942,4.52372 -6.33942,4.52372 -5.50289,11.31035 2.02175,16.40213 -4.04201,33.10798 -16.66331,45.90798 -5.80488,5.88706 -8.7919,7.96691 -17.23412,12 -7.04138,3.36387 -10.22394,5.41493 -10.25,6.60583 -0.082,3.74565 -5.16977,15.05873 -9.97454,22.17908 -10.40342,15.4172 -27.31995,25.24591 -46.73726,27.15492 -3.21193,0.31578 -7.0632,0.10905 -8.55836,-0.45941 -2.53306,-0.96307 -2.92784,-0.72926 -5.78803,3.42787 -3.71679,5.40218 -8.64444,10.30341 -15.97961,15.89395 -8.34377,6.35924 -13.87851,9.23969 -23.62249,12.29385 -8.87749,2.78257 -8.87749,2.78257 -51.87749,2.86616 -23.65,0.046 -46.15,-0.17903 -50,-0.5 z m 92.67174,-16.21384 c 7.93227,-1.70117 13.56241,-4.43288 21.60236,-10.48132 7.80832,-5.87418 13.2259,-12.36349 13.2259,-15.8423 0,-1.18459 -1.54488,-3.65115 -3.43306,-5.48125 -8.97718,-8.70102 -6.36505,-18.15204 3.26295,-11.80577 6.92278,4.56313 19.80336,9.73322 25.81422,10.36148 11.0674,1.15677 27.07796,-6.74762 34.55658,-17.06054 1.57142,-2.16697 3.78171,-6.98391 4.91175,-10.70431 1.89262,-6.23105 1.93193,-6.98478 0.49863,-9.56005 -0.85579,-1.53763 -2.91626,-6.41791 -4.57884,-10.84506 -3.51802,-9.3679 -6.29878,-13.46559 -11.96651,-17.63369 -4.09364,-3.01049 -4.09364,-3.01049 -1.32968,-6.32849 3.25684,-3.90968 4.39916,-3.78575 12.12674,1.31555 5.71394,3.77201 12.5363,11.59019 14.79995,16.9602 1.20688,2.86306 1.71153,3.18374 4.10662,2.60952 14.92501,-3.57825 27.9163,-14.66182 31.42993,-26.81455 0.64548,-2.23254 1.2022,-8.55917 1.23716,-14.05917 0.0636,-10 0.0636,-10 -6.10686,-10.00092 -8.23467,-10e-4 -11.32958,-2.60504 -11.32958,-9.53178 0,-4.68407 0,-4.68407 10.7841,-5.19522 12.94089,-0.61337 16.892,-2.2804 25.23474,-10.64689 10.41133,-10.44097 14.73979,-24.16329 11.61546,-36.82396 -1.66002,-6.72685 -4.3898,-13.12389 -7.1329,-16.71542 -1.29909,-1.70089 -1.89498,-1.78447 -5.34772,-0.75 -8.6605,2.59475 -13.75451,0.53836 -14.79667,-5.97324 -0.84165,-5.25877 1.65753,-7.38262 9.74735,-8.2835 8.02786,-0.89397 13.16385,-3.82035 19.86597,-11.31919 10.20245,-11.41527 13.98752,-21.48901 14.01489,-37.29978 0.0191,-11.04991 -1.82559,-18.08999 -8.06892,-30.79378 -4.28749,-8.72408 -6.32174,-11.557 -13.05997,-18.18745 -7.74599,-7.62208 -8.03564,-7.79956 -9.81883,-6.01637 -3.05964,3.05964 -15.93201,11.11654 -22.42783,14.03772 -13.44395,6.04577 -31.79503,8.01352 -38.21641,4.09786 -4.06233,-2.47714 -4.9389,-5.69962 -2.05819,-7.56635 1.19071,-0.77159 7.8808,-2.5551 14.86687,-3.96336 20.67015,-4.16672 27.59534,-7.36565 37.59655,-17.36686 14.02596,-14.02596 18.77075,-36.23817 11.02217,-51.59911 -3.08391,-6.1136 -10.11695,-13.94234 -15.80337,-17.5913 -4.9439,-3.1725 -5.09582,-3.20172 -8.42711,-1.62092 -4.36558,2.07161 -11.95975,2.069 -15.12536,-0.005 -1.79892,-1.17889 -2.46482,-2.51039 -2.46482,-4.92876 0,-4.05125 1.57297,-5.70727 8.96578,-9.43915 4.92556,-2.48641 6.02143,-3.57458 7.76083,-7.70625 6.15133,-14.61156 2.36766,-31.05675 -9.98829,-43.4127 -10.73796,-10.73796 -21.05457,-13.85345 -45.96527,-13.88096 -15.21318,-0.0168 -15.7733,-0.0909 -17.14587,-2.26736 -2.99779,-4.75361 -2.94109,-6.58994 0.30368,-9.83471 3.07023,-3.07023 3.07023,-3.07023 16.5593,-2.74276 15.48807,0.376 14.79195,1.09437 9.2122,-9.50671 -3.62505,-6.88732 -11.8709,-14.61447 -19.70236,-18.46301 -4.82586,-2.37153 -6.66442,-2.69911 -15,-2.67264 -16.17668,0.0514 -20.83832,2.51233 -28.3138,14.94722 -4.76617,7.92819 -7.5857,9.63032 -12.26956,7.40705 -3.85423,-1.82948 -6.82281,-7.9058 -6.00143,-12.28418 1.28646,-6.85739 6.56518,-12.78191 17.01828,-19.10026 1.45478,-0.87934 1.03076,-1.94748 -3.51413,-8.85233 -3.99953,-6.07632 -6.54456,-8.7417 -11.25242,-11.78454 -20.31885,-13.13271 -45.20605,-9.18759 -57.23155,9.07235 -5.47997,8.32098 -5.43668,7.4343 -5.42008,111.02462 0.008,52.54694 0.39309,96.13574 0.85481,96.86399 1.79932,2.83798 14.79048,-4.74208 18.6759,-10.89699 3.11857,-4.94014 5.45398,-13.24662 5.45398,-19.3985 0,-5.4338 -2.47004,-16.39445 -4.05157,-17.9786 -0.52164,-0.5225 -0.94843,-1.50275 -0.94843,-2.17833 0,-0.67558 -1.60397,-3.92092 -3.56438,-7.21187 -4.16071,-6.98461 -4.59234,-11.10397 -1.58913,-15.16604 1.18443,-1.60203 2.15351,-3.13554 2.15351,-3.40781 0,-0.27227 1.06111,-1.55615 2.35802,-2.85307 5.41747,-5.41746 9.27911,-23.64377 8.3986,-39.64001 -0.36323,-6.59874 -1.20654,-10.38312 -3.63393,-16.30721 -3.89181,-9.49807 -5.12269,-15.73434 -5.12269,-25.95427 0,-12.91345 2.52794,-16.47504 11.11163,-15.65507 3.38837,0.32368 3.38837,0.32368 3.43838,13.32368 0.0429,11.1536 0.38087,13.85218 2.3795,19 9.78011,25.19034 9.10326,44.99465 -2.32063,67.90038 -5.45708,10.94184 -5.45708,10.94184 -0.99106,19.83422 4.46602,8.89237 4.46602,8.89237 9.1741,5.53324 10.14535,-7.23854 14.78669,-18.2796 13.67424,-32.52899 -0.63243,-8.10081 -0.52739,-8.87879 1.4387,-10.65552 2.67968,-2.42158 7.46361,-2.46483 10.08645,-0.0912 4.40184,3.98361 5.1139,17.26731 1.49575,27.9037 -3.55326,10.44567 -13.79486,23.69255 -24.73706,31.9959 -3.26257,2.47576 -3.75174,3.38263 -3.76338,6.97695 -0.0206,6.36583 -5.1821,19.9984 -9.29555,24.5515 -1.94535,2.15327 -4.28638,5.05874 -5.2023,6.45661 -1.92201,2.93335 -15.2151,11.14372 -20.73877,12.80913 -3.75,1.13066 -3.75,1.13066 -3.75,14.97237 0,13.84171 0,13.84171 4.34004,13.84171 11.84746,0 31.31897,-7.82098 39.28885,-15.78086 4.38001,-4.37452 11.37111,-16.96308 11.37111,-20.47546 0,-3.24884 3.39015,-10.94769 5.36091,-12.17434 1.1765,-0.73228 4.84139,-1.59153 8.1442,-1.90945 3.30281,-0.31792 11.67981,-1.95832 18.61556,-3.64533 15.71739,-3.823 17.87933,-3.4088 17.87933,3.42551 0,5.67513 -0.63097,6.02942 -16.36294,9.18798 -18.5846,3.73128 -18.16585,3.52032 -20.4575,10.30628 -3.08408,9.13246 -12.93537,22.95545 -20.36647,28.57753 -11.2015,8.47462 -21.77837,12.53881 -43.06309,16.54711 -5.75,1.08283 -5.75,1.08283 -5.72555,132.26193 0.0157,84.35547 0.38365,132.737 1.03077,135.54366 1.80566,7.83131 10.16049,17.90246 17.66636,21.29551 9.00829,4.07222 23.19657,5.69422 32.45016,3.70968 z m -28.46503,-73.14128 c -3.61638,-2.74803 -4.6269,-10.57307 -2.69152,-20.84198 1.1728,-6.22272 5.77474,-15.97556 12.9225,-27.38649 6.57901,-10.50295 9.06231,-17.94457 9.06231,-27.15666 0,-9.529 -2.90009,-17.44951 -8.39834,-22.93692 -3.89989,-3.89221 -7.39183,-5.59591 -17.60166,-8.58776 -4.0463,-1.18571 -4.53213,-1.65347 -4.81864,-4.63943 -0.17865,-1.8619 0.38063,-4.38799 1.27306,-5.75 3.45972,-5.28021 18.80799,-1.88144 29.09623,6.44316 9.8346,7.95754 14.41559,18.69391 14.43748,33.83682 0.01,6.85036 -0.56069,9.81117 -3.44714,17.88711 -1.90246,5.32284 -4.58137,11.30369 -5.95313,13.29078 -1.37177,1.9871 -3.90421,6.3129 -5.62765,9.6129 -1.72344,3.3 -3.8115,7.25556 -4.64013,8.79014 -0.82864,1.53458 -2.18108,6.93458 -3.00542,12 -1.97288,12.12293 -2.16404,13.01784 -3.05582,14.30589 -1.23746,1.78732 -5.79162,2.47022 -7.55213,1.13244 z m 59.85528,-63.05948 c -2.32715,-1.70166 -1.83069,-5.27269 2.31738,-16.66899 2.69476,-7.40348 3.0956,-9.81592 3.10725,-18.70078 0.0255,-19.41782 -3.85556,-29.29303 -16.43412,-41.81636 -6.966,-6.93541 -10.03078,-9.06785 -22.71436,-15.80437 -12.25626,-6.50957 -14.92243,-8.33635 -16.25,-11.13399 -0.87348,-1.84072 -1.58814,-4.0144 -1.58814,-4.83041 0,-1.05104 -1.62766,-1.68701 -5.58223,-2.1811 -6.18205,-0.77239 -9.41777,-3.13551 -9.41777,-6.878 0,-4.43106 3.06544,-5.82319 16.22973,-7.37052 12.84964,-1.51035 20.7307,-1.37224 44.85434,0.78607 11.44024,1.02354 17.60805,1.05878 28.61213,0.16347 26.95612,-2.19318 38.64114,-8.70548 45.31145,-25.25299 2.56046,-6.35191 3.73193,-8.12854 5.6826,-8.61813 6.02111,-1.5112 10.36416,4.11442 8.36293,10.83265 -1.44332,4.8453 -11.60418,18.4833 -17.1661,23.04048 -2.41289,1.97702 -8.16175,5.41987 -12.77525,7.65078 -4.61349,2.23091 -8.58838,4.25642 -8.8331,4.50114 -0.24472,0.24472 1.50495,1.30917 3.88816,2.36545 2.38321,1.05627 8.04285,5.41303 12.57697,9.68167 6.34152,5.97021 9.05903,9.41153 11.7764,14.91305 8.36691,16.9395 8.58863,30.65189 0.49562,30.65189 -2.95518,0 -7.01588,-3.85843 -7.01588,-6.6664 0,-3.02743 -4.29798,-13.91262 -7.20621,-18.25068 -5.07733,-7.57358 -12.90492,-15.00649 -19.79379,-18.79577 -3.575,-1.96645 -8.56689,-4.86212 -11.09309,-6.43482 -4.21896,-2.62653 -5.97025,-2.98021 -21.5,-4.34208 -9.2988,-0.81545 -22.83213,-2.22199 -30.07406,-3.12565 -18.76587,-2.34162 -23.79948,-0.64719 -10.67415,3.59317 24.13353,7.79673 43.35274,25.19359 50.89611,46.07017 2.17279,6.0133 4.43672,20.07472 4.44138,27.5857 0.004,5.91253 0.15199,6.2675 4.11425,9.84717 5.49197,4.96166 9.58408,6.52004 17.10744,6.51491 7.17252,-0.005 11.36526,-2.22834 18.54622,-9.83523 3.3456,-3.54405 4.52173,-4.20976 6.41621,-3.63172 8.71726,2.65983 7.60865,10.53335 -2.59108,18.40239 -14.03301,10.82639 -30.40878,12.03237 -43.54922,3.20715 -4.29269,-2.883 -4.29269,-2.883 -6.96493,2.23225 -2.47938,4.74608 -7.82037,9.62944 -10.53183,9.62944 -0.63855,0 -1.98011,-0.59895 -2.98126,-1.33101 z m 42.63021,-204.89899 c -2.18046,-0.56501 -3.36007,-1.59068 -3.78734,-3.29306 -0.99134,-3.94979 0.0748,-5.13415 6.26883,-6.96409 3.20447,-0.94671 7.80178,-2.34354 10.21623,-3.10405 12.69692,-3.99933 21.9144,-13.80332 25.18344,-26.78587 1.342,-5.32954 3.94401,-6.68231 8.57965,-4.46051 8.04693,3.8568 4.36267,15.72915 -9.42732,30.37904 -9.0077,9.56941 -27.53828,16.68899 -37.03349,14.22854 z m -51.6355,-38.99251 c -3.18259,-4.54379 -1.35801,-7.19032 6.72456,-9.75391 10.85345,-3.44244 21.17171,-12.55222 26.70495,-23.57727 3.28845,-6.55228 3.48581,-7.51356 3.47926,-16.94631 -0.0102,-14.62928 -3.12619,-22.04473 -11.91582,-28.35696 -3.54694,-2.54722 -5.34947,-3.14304 -9.50858,-3.14304 -4.11543,0 -5.61818,-0.4862 -7.58652,-2.45455 -1.35,-1.35 -2.45455,-3.622 -2.45455,-5.04889 0,-2.08289 0.83785,-2.97466 4.25,-4.52349 11.1212,-5.0481 23.99684,-0.34209 32.58257,11.90885 12.31944,17.57855 13.20135,35.34584 2.70981,54.59282 -6.54818,12.01281 -14.45965,19.76613 -26.93315,26.39479 -7.55251,4.01355 -15.594,4.41801 -18.05253,0.90796 z m -267.51529,266.7724 c -0.6531,-0.78693 -1.6718,-4.69418 -2.2638,-8.68278 -2.37043,-15.97094 3.67182,-33.42832 13.29185,-38.40303 4.14661,-2.1443 12.74654,-1.87365 16.68054,0.52496 3.15541,1.92389 3.24939,2.17845 3.22891,8.74626 -0.0249,7.97148 -3.12861,17.71503 -7.81086,24.52044 -6.06632,8.81711 -20.13191,16.90258 -23.12664,13.29415 z m -93.38917,-48.01375 c -0.84619,-2.20515 2.01844,-14.69675 4.83641,-21.08975 4.4532,-10.10276 13.22623,-17.44639 20.84225,-17.44639 6.22226,0 9.99905,1.59569 12.06845,5.09889 4.74333,8.02982 -5.85692,25.53638 -19.17901,31.67458 -7.2294,3.33098 -17.5889,4.31441 -18.5681,1.76267 z m 72.91393,-21.46303 c -4.18816,-4.62785 -4.7403,-17.32425 -1.07341,-24.68274 3.55229,-7.12852 7.49903,-10.59917 12.45449,-10.95214 2.22901,-0.15877 4.05275,0.0198 4.05275,0.39677 0,0.37699 1.01664,1.80584 2.2592,3.17522 4.50757,4.96764 5.40954,7.23778 4.6227,11.63473 -1.60527,8.97043 -7.93219,18.05101 -14.59978,20.95401 -4.27697,1.86216 -5.63883,1.76934 -7.71595,-0.52585 z m 87,-1 c -2.15626,-2.38263 -3.51092,-7.97625 -3.54231,-14.62677 -0.0278,-5.88766 3.34496,-13.50939 7.91615,-17.88886 3.68569,-3.53112 10.62898,-4.49083 11.54772,-1.59614 0.31521,0.99313 1.90942,3.20401 3.54269,4.91307 3.8789,4.0589 3.90046,8.65457 0.0785,16.73339 -3.19201,6.74726 -6.93888,10.86301 -11.8268,12.99116 -4.27697,1.86216 -5.63883,1.76934 -7.71595,-0.52585 z M 184.60645,537.93877 c -7.81203,-2.98272 -8.99373,-6.63947 -4.45437,-13.78402 3.72028,-5.8554 9.33482,-10.67163 15.99505,-13.72078 7.22369,-3.30712 16.7603,-2.83324 23.59552,1.17246 7.4725,4.37917 7.46113,9.18702 -0.0414,17.53169 -6.85023,7.6191 -10.92418,9.39286 -22.37379,9.74132 -5.80751,0.17675 -10.75193,-0.18888 -12.72096,-0.94067 z m 23.95563,-76.16066 c -1.79594,-0.81702 -3.56014,-2.25372 -3.92045,-3.19268 -1.16533,-3.03679 4.6931,-12.50704 12.36112,-19.98196 7.10833,-6.92932 7.46965,-7.13639 14.57313,-8.35148 8.03771,-1.37489 12.69831,-0.6368 18.50153,2.93003 3.7822,2.32466 4.08055,4.62934 1.36276,10.52695 -2.84905,6.18243 -9.60402,13.104 -15.69866,16.08583 -6.88437,3.36821 -21.75062,4.45301 -27.17943,1.98331 z m -82.95562,-23.83934 c -7.81203,-2.98272 -8.99373,-6.63947 -4.45437,-13.78402 3.72028,-5.8554 9.33482,-10.67163 15.99505,-13.72078 7.22369,-3.30712 16.7603,-2.83324 23.59551,1.17246 7.4725,4.37917 7.46113,9.18702 -0.0414,17.53169 -6.85022,7.6191 -10.92417,9.39286 -22.37378,9.74132 -5.80751,0.17675 -10.75193,-0.18888 -12.72096,-0.94067 z m 79.84822,-43.80636 c -7.43601,-2.97659 -15.30273,-13.98848 -18.02078,-25.22558 -1.18797,-4.91138 -0.6227,-13.67712 1.09704,-17.01204 1.90106,-3.68653 13.2293,0.77303 21.26221,8.37023 9.21825,8.71823 12.5618,19.57193 8.711,28.2773 -2.78414,6.29401 -6.89341,8.05432 -13.04947,5.59009 z m -80.70602,-17.85526 c -10.28604,-5.8998 -20.64461,-21.05776 -18.96461,-27.7514 1.55135,-6.18109 14.04572,-7.16452 24.63749,-1.9392 8.85351,4.36777 9.95172,5.19329 13.44489,10.10651 5.44425,7.65746 5.68836,13.71538 0.78738,19.53986 -2.28118,2.71103 -3.05282,2.97521 -8.66528,2.96667 -4.96506,-0.008 -7.14704,-0.57489 -11.23987,-2.92244 z m 192.75838,-12.74994 c -7.1759,-3.53614 -11.40534,-12.63243 -11.42843,-24.57917 -0.013,-6.72383 0.41164,-8.62755 3.1777,-14.2462 4.5208,-9.18306 8.69884,-9.78069 14.56939,-2.084 5.6838,7.45185 9.07045,24.19335 6.50931,32.17807 -1.62659,5.07113 -5.64582,10.41927 -7.80849,10.39029 -0.93451,-0.0125 -3.19328,-0.75907 -5.01948,-1.65899 z M 200.94515,333.15535 c -10.04465,-2.50991 -21.61774,-11.40924 -21.61774,-16.62333 0,-4.78084 12.91655,-11.32305 22.35557,-11.32305 10.1933,0 23.11555,9.06026 25.29237,17.73341 0.89508,3.56629 -0.48182,5.38255 -6.16307,8.12965 -5.50126,2.66007 -13.99463,3.55071 -19.86713,2.08332 z m 52.82492,-28.34488 c -9.94733,-10.38161 -10.38478,-30.76054 -0.95403,-44.44545 4.00539,-5.81221 7.66613,-8.5591 10.29475,-7.7248 2.5495,0.80918 8.65517,9.64307 10.76055,15.56875 5.09238,14.33267 1.24386,34.14985 -7.65251,39.40507 -4.66514,2.75576 -7.79802,2.05021 -12.44876,-2.80357 z m -140.65717,-0.3515 c -0.83848,-0.9625 -1.94378,-3.05666 -2.45622,-4.65369 -0.86858,-2.70691 -1.29332,-2.91023 -6.26708,-3 -4.585359,-0.0828 -5.622199,-0.47946 -7.375819,-2.82193 -1.95105,-2.60619 -1.96347,-2.8107 -0.28338,-4.66717 1.05006,-1.1603 3.772549,-2.21875 6.765939,-2.63044 4.52784,-0.62274 4.94731,-0.89479 4.36786,-2.83283 -2.45408,-8.20792 -1.26462,-14.0348 2.74652,-13.45462 3.10159,0.44861 6.7167,6.3468 6.7167,10.95856 0,3.59629 0.19532,3.85212 2.94098,3.85212 1.61754,0 3.09648,0.60473 3.72507,0.79621 0.69133,0.21059 0.69869,0.31615 1.23288,0.63683 1.38421,0.83095 2.38039,3.52547 1.14267,5.01683 -0.618,0.74465 -2.23018,1.63163 -3.58262,1.97107 -2.18303,0.5479 -2.45898,1.15369 -2.45898,5.39811 0,6.78019 -3.64732,9.52581 -7.21452,5.43095 z m 208.2199,-30.91799 c -2.47204,-0.86489 -6.29704,-2.81502 -8.5,-4.33364 -12.51511,-8.62728 -24.13895,-28.51211 -17.75539,-30.37402 8.3028,-2.4217 21.29786,-1.154 29.19563,2.8481 6.72124,3.40591 14.57628,12.3351 16.65645,18.93414 2.30758,7.32049 1.41244,10.23019 -3.88737,12.63614 -5.08215,2.30713 -9.69885,2.39215 -15.70932,0.28928 z M 189.42935,260.16786 c -4.7795,-3.46226 -9.19385,-9.91586 -12.10536,-17.69757 -2.21336,-5.91575 -2.80485,-20.88254 -0.9614,-24.32706 2.53391,-4.73464 15.2129,-0.60331 23.70475,7.72398 8.52786,8.3626 11.61702,21.5524 7.28368,31.09919 -3.19273,7.03388 -10.76406,8.3864 -17.92167,3.20146 z m 186.14235,-10.4737 c -10.21039,-7.2722 -4.67157,-28.91083 9.71341,-37.94764 4.50879,-2.83248 15.01668,-6.2722 21.77512,-7.12802 6.61777,-0.83801 6.99251,-0.0455 4.87946,10.31827 -3.02451,14.83426 -10.70953,26.38839 -21.29135,32.01071 -7.5682,4.02114 -12.12236,4.85082 -15.07664,2.74668 z m -264.5013,-9.01387 c -6.76962,-4.60008 -8.65327,-12.43674 -4.74298,-19.7325 1.1,-2.05237 2,-3.94554 2,-4.20706 0,-0.26152 -2.09202,0.63685 -4.64894,1.99637 -7.588779,4.035 -11.119179,3.44558 -18.537299,-3.09489 -3.47257,-3.06172 -8.41993,-6.65343 -10.99415,-7.98157 -9.82251,-5.06785 -10.44093,-12.46656 -1.46662,-17.54666 3.40357,-1.92666 5.93973,-2.41408 14.14701,-2.71889 11.49416,-0.42687 17.616239,1.2967 26.630479,7.49741 4.90819,3.37624 5.13227,3.43503 4.51465,1.18452 -2.43767,-8.88251 -2.8078,-15.59314 -1.33076,-24.12713 3.08515,-17.82515 12.10579,-28.32076 18.68563,-21.74092 1.1,1.1 1.66821,2.75902 2,3.95145 0.28771,1.03401 2.19524,6.13579 4.87831,11.25 6.42418,12.24515 6.88323,14.59397 4.01155,20.52608 -1.25133,2.58489 -3.42596,5.75581 -4.8325,7.04648 -2.23786,2.0535 -2.28447,2.21421 -0.3731,1.28633 1.20134,-0.58318 4.20431,-1.06034 6.67327,-1.06034 7.56304,0 13.64246,6.71467 13.64246,15.06799 0,3.52893 -0.6131,4.78041 -4.00236,8.16968 -3.91732,3.91731 -4.12791,3.99329 -9.90957,3.57508 -4.24524,-0.30707 -7.05802,-1.18886 -9.99763,-3.13421 -2.24974,-1.4888 -4.09043,-2.47553 -4.09043,-2.19273 0,0.28281 -0.9,-0.38581 -2,-1.48581 -2.49668,-2.49668 -4.4853,-2.63987 -3.47193,-0.25 5.42401,12.79163 4.43236,22.62541 -2.87172,28.47776 -3.23707,2.59369 -9.48295,2.25411 -13.91337,-0.75644 z m 216.57295,-30.7974 c -5.96678,-2.19988 -11.74467,-7.1661 -14.81594,-12.73461 -2.88497,-5.23075 -2.99969,-5.91859 -2.99193,-17.93931 0.007,-10.72772 0.31797,-13.17346 2.19377,-17.25 1.20214,-2.6125 2.78374,-4.75 3.51468,-4.75 2.97176,0 14.31355,7.775 17.86666,12.24791 9.28252,11.68552 10.68001,30.44157 2.88954,38.78129 -3.02467,3.23792 -3.88973,3.40227 -8.65678,1.64472 z M 202.20246,191.77003 c -3.88663,-2.64103 -6.87505,-7.83191 -6.87505,-11.94195 0,-3.16259 2.88496,-10.61911 4.10858,-10.61911 0.49028,0 0.89142,-0.69083 0.89142,-1.53518 0,-1.20792 -0.41234,-1.31451 -1.93426,-0.5 -1.06384,0.56935 -4.05732,1.03518 -6.65217,1.03518 -4.38526,0 -5.07736,-0.37251 -9.81574,-5.28311 -10.19447,-10.565 -15.59783,-17.75781 -15.59783,-20.76343 0,-12.77388 28.09155,-9.43769 43.53765,5.17059 5.46235,5.16606 5.46235,5.16606 5.46235,-4.01125 0,-7.79647 0.45025,-10.34486 2.99243,-16.93695 5.25017,-13.61413 15.67208,-22.89978 19.93582,-17.7623 1.03105,1.24234 3.87162,10.31528 7.26322,23.19913 1.98468,7.5393 -0.64628,13.51252 -8.19147,18.59756 -2.47522,1.66816 -2.43791,1.68538 3.76469,1.73731 5.63991,0.0472 6.61754,0.37657 9.80285,3.30245 6.25286,5.74359 6.42883,14.50511 0.40721,20.2742 -2.59742,2.48848 -3.79835,2.89951 -8.28228,2.83469 -6.28541,-0.0908 -10.16028,-1.93251 -14.82097,-7.04415 -6.44882,-7.07278 -6.42112,-7.08076 -6.02074,1.73573 0.29969,6.5993 -0.008,8.64211 -1.88281,12.51575 -3.95297,8.16573 -11.31054,10.60357 -18.0929,5.99484 z M 362.47308,177.7221 c -10.62101,-12.09666 -2.73785,-33.92664 15.17918,-42.03406 8.19941,-3.71021 12.06373,-4.09049 14.70694,-1.44728 2.06956,2.06956 2.1887,2.90194 1.76676,12.34371 -0.39244,8.78171 -0.87488,11.00888 -3.63751,16.79263 -4.93295,10.32745 -14.58013,17.83187 -22.92347,17.83187 -1.11671,0 -3.40807,-1.56909 -5.0919,-3.48687 z M 133.32742,125.11388 c -4.14545,-1.67705 -9.97091,-8.08318 -11.07327,-12.177 -0.88607,-3.29062 -0.68232,-4.58201 1.46181,-9.2654 2.49137,-5.441882 2.49137,-5.441882 -1.40874,-3.45219 -7.34385,3.74655 -15.05119,1.86986 -20.04158,-4.880002 -1.21553,-1.6441 -5.073889,-5.2842 -8.574139,-8.08912 -5.30178,-4.24859 -6.36408,-5.6067 -6.36408,-8.13627 0,-7.24036 5.98947,-10.84792 18.068499,-10.88297 11.82077,-0.0343 21.97265,3.68521 30.50482,11.17656 1.92162,1.6872 3.66394,2.89526 3.87183,2.68456 0.20788,-0.21069 -0.081,-2.85808 -0.64188,-5.88308 -0.56092,-3.025 -0.79759,-9.18581 -0.52592,-13.6907 0.42058,-6.97441 1.10333,-9.44971 4.59771,-16.6691 2.25708,-4.66312 5.29423,-9.4148 6.74922,-10.5593 5.67273,-4.46217 9.42084,0.37779 12.81179,6.34142 3.58681,6.30808 3.64481,7.77065 4.04269,8.99788 1.12964,3.48427 1.50662,4.57294 2.19568,13.26279 0.48371,6.10027 0.43615,6.24171 -3.55475,10.57133 -4.04503,4.38834 -4.04503,4.38834 -1.26253,3.97995 4.40881,-0.64707 10.48611,1.47082 13.62658,4.74876 2.36643,2.47003 2.96669,4.09614 3.3212,8.99712 0.41609,5.7524 0.29754,6.11737 -3.08612,9.501032 -3.13723,3.13723 -4.09188,3.51883 -8.80311,3.51883 -6.33399,0 -11.66291,-2.41082 -17.79388,-8.050002 -2.408,-2.21485 -4.55809,-3.84708 -4.77798,-3.62719 -0.2199,0.21989 0.13545,1.69972 0.78965,3.2885 0.65421,1.58878 1.1168,3.226192 1.02798,3.638692 -0.0888,0.4125 0.21569,0.75 0.67668,0.75 1.33843,0 0.46097,11.15922 -1.17946,14.99999 -3.01686,7.06341 -9.49019,10.99585 -14.6587,8.90491 z m 222.66611,-4.88986 c -2.23147,-2.65195 -2.66612,-4.13415 -2.66612,-9.09178 0,-6.39489 -0.64368,-7.07946 -3.59265,-3.82088 -2.87361,3.17529 -6.85868,4.89761 -11.33201,4.89761 -3.44462,0 -4.24364,-0.42478 -5.54966,-2.95034 -3.1878,-6.16452 -0.54368,-12.065152 6.32923,-14.124322 3.7476,-1.12283 3.7476,-1.12283 0.44635,-4.42408 -3.74313,-3.74313 -3.96718,-5.53736 -1.67499,-13.41337 2.93259,-10.07645 3.46614,-11.08789 5.84903,-11.08789 1.74318,0 9.05307,5.15936 7.69893,5.43394 -0.17917,0.0363 1.05797,2.99106 2.74921,6.56606 1.92254,4.06394 3.07528,8.08456 3.07577,10.72798 7.9e-4,4.22797 7.9e-4,4.22797 4.71627,1.2375 5.78642,-3.66963 10.19281,-4.95264 17.03452,-4.9599 3.9218,-0.004 5.75598,0.5004 7.25,1.99442 2.74807,2.74807 2.57928,3.55101 -2.02967,9.65553 -5.14064,6.808732 -7.99167,8.677552 -12.44514,8.157632 -3.41995,-0.39926 -3.45986,-0.36239 -2.00726,1.85456 0.81514,1.24405 1.48207,3.63435 1.48207,5.31178 0,3.89921 -5.32975,9.80236 -9.58388,10.61498 -2.60198,0.49702 -3.50051,0.0939 -5.75,-2.57943 z m -82.51755,-17.54348 c -4.90238,-4.125082 -6.54579,-9.959272 -5.84563,-20.752232 0.59808,-9.21934 0.59808,-9.21934 -2.10243,-5.74941 -9.33582,11.99573 -21.18854,17.22889 -28.08364,12.39938 -5.07111,-3.55195 -7.07727,-16.40891 -3.17005,-20.31613 2.67548,-2.67548 6.90192,-4.74658 11.41335,-5.59293 3.79107,-0.7112 3.79107,-0.7112 0.0912,-3.76093 -6.59457,-5.43582 -7.83779,-11.35652 -4.45137,-21.19932 1.1,-3.19721 2,-7.79724 2,-10.22229 0,-4.40995 1.32959,-8.130146 3.3997,-9.512396 3.26153,-2.177775 11.90378,1.03964 14.19096,5.283146 0.50014,0.92792 2.37255,4.10912 4.16091,7.06933 5.40344,8.94411 7.50134,15.54769 7.62351,23.99658 0.11011,7.61437 0.11011,7.61437 6.08938,2.20344 7.98744,-7.22822 16.02347,-11.0243 25.82622,-12.19986 8.39722,-1.00701 13.83829,-0.13901 17.05194,2.72025 3.02112,2.68795 3.74616,4.79809 2.64436,7.69603 -1.04339,2.74435 -9.48797,12.84842 -16.40337,19.62692 -3.71159,3.63811 -4.24865,3.83885 -10.27032,3.83885 -6.35394,0 -6.35394,0 -4.33361,3.96016 1.11117,2.17809 2.02032,5.83748 2.02032,8.13197 0,11.463092 -13.70987,19.230102 -21.85143,12.379442 z"
       id="path3"
       sodipodi:nodetypes="ssssssssssssssssssssssssssssssssssssssssssssssssssssssssssssssssssssssssssssssssssssssssssssssssssssscssssssssssssssssssssssssssssssssssssscssssssssssssssssssssscsssssssssssssssssscsssssssssssssssssssssssssssssssssssssssssssssssssssssssssssssssssssssssssssssssssssssssssscsssssssssssssssssssssssssssssssssssssssssssssssssssssssssssssssssssssssssssssssssssssssssssssscsssssssssssssssssssssssssssssssssssssssssssssssssssssssssssssssssssssssssssssssssssssssssssssssssssssssssssssscssssssssssssssssssssssssssssssssssssssssssssssssssscsssssssssssssssssssssssssssss" />
  </g>
</svg>
